<?xml version="1.0" standalone="no"?>
<!DOCTYPE svg PUBLIC "-//W3C//DTD SVG 20010904//EN"
 "http://www.w3.org/TR/2001/REC-SVG-20010904/DTD/svg10.dtd">
<svg version="1.0" xmlns="http://www.w3.org/2000/svg"
 width="500.000000pt" height="500.000000pt" viewBox="0 0 500.000000 500.000000"
 preserveAspectRatio="xMidYMid meet">

<g transform="translate(0.000000,500.000000) scale(0.100000,-0.100000)"
fill="#000000" stroke="none">
<path d="M2542 4001 c-25 -16 -10 -55 26 -66 17 -5 32 -15 32 -22 0 -16 -24
-17 -50 -1 -24 15 -37 4 -20 -17 9 -11 26 -15 54 -13 36 3 41 6 44 31 2 16 -2
29 -10 32 -67 23 -71 26 -60 37 9 9 18 8 37 -2 31 -16 47 -4 21 16 -22 16 -54
18 -74 5z"/>
<path d="M2271 3991 c-11 -7 -11 -10 2 -17 19 -11 35 -84 18 -84 -6 0 -11 -4
-11 -10 0 -13 57 -13 65 0 3 6 -1 17 -9 26 -18 17 -22 74 -6 74 6 0 10 5 10
10 0 12 -50 13 -69 1z"/>
<path d="M2817 3917 c-5 -61 0 -76 30 -77 7 0 22 18 33 40 11 22 23 40 25 40
3 0 4 -21 2 -46 -2 -40 1 -47 20 -55 20 -7 25 -2 47 48 30 65 30 63 13 63 -7
0 -23 -19 -34 -42 l-22 -43 0 51 c-1 39 -5 53 -17 58 -20 8 -16 11 -49 -44
l-27 -45 6 51 c5 39 3 53 -7 57 -11 4 -16 -9 -20 -56z"/>
<path d="M1996 3921 c-9 -10 -14 -25 -10 -35 6 -17 10 -18 58 -20 16 0 31 -6
33 -12 6 -16 -27 -26 -43 -13 -19 15 -38 1 -23 -17 28 -34 108 2 95 44 -5 16
-16 22 -49 24 -42 3 -51 22 -12 25 11 0 26 1 33 2 7 1 10 6 7 11 -11 17 -71
11 -89 -9z"/>
<path d="M3165 3789 c-49 -50 -49 -51 -21 -46 39 7 56 -1 67 -29 15 -40 27
-27 36 39 7 51 6 64 -7 74 -22 18 -21 18 -75 -38z m57 -12 c-5 -20 -11 -24
-22 -17 -12 7 -11 12 5 29 22 26 26 23 17 -12z"/>
<path d="M1740 3815 c-8 -10 -10 -33 -5 -75 7 -63 19 -76 35 -36 9 25 42 42
60 31 5 -3 15 -3 20 0 9 6 -76 94 -91 95 -4 0 -12 -7 -19 -15z m50 -55 c0 -5
-6 -10 -14 -13 -10 -4 -15 4 -18 24 -4 27 -4 28 14 12 10 -9 18 -19 18 -23z"/>
<path d="M3407 3640 c-24 -31 -33 -51 -26 -55 6 -4 16 -2 22 4 20 20 36 12 39
-21 5 -49 28 -48 28 1 0 38 2 40 35 47 49 9 32 27 -21 21 -42 -4 -43 -4 -28
18 13 19 10 36 -5 35 -3 -1 -23 -23 -44 -50z"/>
<path d="M1490 3651 l-34 -29 38 -46 c20 -25 41 -46 45 -46 4 0 22 13 41 29
42 35 34 52 -9 22 -38 -27 -52 -9 -20 25 29 31 16 44 -15 15 -31 -29 -47 -9
-17 23 41 44 22 49 -29 7z"/>
<path d="M3638 3458 c-43 -34 -49 -67 -18 -98 27 -27 46 -25 92 11 50 40 37
64 -15 25 -39 -30 -50 -32 -67 -11 -10 13 -6 21 26 50 50 46 34 66 -18 23z"/>
<path d="M1277 3436 l-26 -34 49 -41 49 -41 25 33 c39 51 34 84 -11 78 -7 -1
-13 7 -13 19 0 34 -43 26 -73 -14z m53 -10 c0 -18 -26 -40 -34 -27 -9 14 4 41
20 41 8 0 14 -6 14 -14z m44 -24 c2 -4 -2 -16 -10 -27 -11 -14 -17 -16 -26 -7
-8 8 -8 15 2 27 14 16 26 19 34 7z"/>
<path d="M2550 3129 c-247 -17 -454 -128 -531 -285 -27 -55 -32 -77 -33 -137
0 -82 15 -120 72 -179 45 -47 86 -51 131 -12 35 29 38 49 15 114 -31 88 3 193
83 260 98 80 270 123 412 103 122 -18 174 -50 206 -127 42 -99 -43 -231 -175
-274 -91 -29 -170 -37 -170 -18 0 49 90 252 120 271 19 12 10 34 -20 50 -83
43 -167 -13 -236 -159 -31 -67 -49 -123 -140 -439 -31 -106 -40 -127 -53 -121
-72 32 -154 54 -206 54 -90 0 -134 -16 -187 -69 -37 -37 -47 -55 -53 -94 -15
-100 22 -166 117 -208 42 -18 71 -23 143 -23 77 0 98 4 150 27 33 16 76 44 96
63 l36 35 54 -36 c111 -73 239 -103 363 -86 144 20 243 89 300 210 28 59 31
76 31 156 0 75 -4 97 -24 135 -33 63 -112 135 -173 158 l-51 19 35 6 c53 8
124 45 167 88 113 109 119 262 16 377 -98 109 -265 156 -495 141z m171 -695
c58 -17 126 -74 146 -121 19 -47 16 -134 -7 -197 -24 -63 -78 -117 -135 -136
-80 -26 -221 4 -301 65 l-30 23 60 184 c34 100 65 189 70 197 10 16 118 8 197
-15z m-578 -345 c54 -28 52 -24 33 -54 -26 -40 -75 -65 -126 -65 -60 0 -90 21
-90 65 0 70 95 98 183 54z"/>
</g>
</svg>
